<?xml version="1.0" encoding="UTF-8" standalone="no"?>
<!-- Created with Inkscape (http://www.inkscape.org/) -->

<svg
   xmlns:dc="http://purl.org/dc/elements/1.1/"
   xmlns:cc="http://creativecommons.org/ns#"
   xmlns:rdf="http://www.w3.org/1999/02/22-rdf-syntax-ns#"
   xmlns:svg="http://www.w3.org/2000/svg"
   xmlns="http://www.w3.org/2000/svg"
   xmlns:sodipodi="http://sodipodi.sourceforge.net/DTD/sodipodi-0.dtd"
   xmlns:inkscape="http://www.inkscape.org/namespaces/inkscape"
   width="744.09448819"
   height="1052.3622047"
   id="svg2"
   version="1.1"
   inkscape:version="0.48.0 r9654"
   sodipodi:docname="New document 1">
  <defs
     id="defs4" />
  <sodipodi:namedview
     id="base"
     pagecolor="#ffffff"
     bordercolor="#666666"
     borderopacity="1.0"
     inkscape:pageopacity="0.0"
     inkscape:pageshadow="2"
     inkscape:zoom="0.35"
     inkscape:cx="375"
     inkscape:cy="520"
     inkscape:document-units="px"
     inkscape:current-layer="layer1"
     showgrid="false"
     inkscape:window-width="734"
     inkscape:window-height="654"
     inkscape:window-x="0"
     inkscape:window-y="0"
     inkscape:window-maximized="0" />
  <metadata
     id="metadata7">
    <rdf:RDF>
      <cc:Work
         rdf:about="">
        <dc:format>image/svg+xml</dc:format>
        <dc:type
           rdf:resource="http://purl.org/dc/dcmitype/StillImage" />
        <dc:title></dc:title>
      </cc:Work>
    </rdf:RDF>
  </metadata>
  <g
     inkscape:label="Layer 1"
     inkscape:groupmode="layer"
     id="layer1">
    <g
       id="g3068"
       transform="translate(37.142861,25.714287)">
      <path
         style="fill:#fcfdfd"
         d="m 0.5714035,129.50506 0,-128.0000028 127.9999965,0 128,0 0,128.0000028 0,128 -128,0 -127.9999965,0 0,-128 z"
         id="path3084"
         inkscape:connector-curvature="0" />
      <path
         style="fill:#d0cbc8"
         d="M 114.0714,222.13063 C 95.340567,218.06299 84.850207,213.26834 75.015601,204.28006 L 69.590136,199.3215 53.83077,207.502 c -9.301148,4.82812 -17.414085,9.78335 -19.797218,12.09178 -4.002728,3.87726 -4.106541,3.91128 -11.934276,3.91128 -8.279209,0 -14.421622,-2.01514 -17.9176869,-5.87825 -4.9581778,-5.47872 -4.08447581,-22.31945 1.4812672,-28.55163 2.5565512,-2.86267 3.2373512,-3.08017 10.0751847,-3.21881 l 7.333362,-0.1487 9.736588,-12.3513 c 5.355125,-6.79322 9.742624,-12.73822 9.75,-13.2111 0.0074,-0.47289 -2.204406,-3.28644 -4.915073,-6.25234 C 22.526348,137.35299 21.881866,112.798 35.849792,85.574203 48.012405,61.868997 65.363195,44.177792 87.252679,33.162813 105.5956,23.932491 119.40629,20.535795 141.5714,19.803291 c 23.70321,-0.783334 37.55388,1.639547 39.39901,6.892019 1.18238,3.365852 0.17675,4.665147 -7.80701,10.086813 -5.82538,3.955942 -5.92185,4.093799 -3.54028,5.059043 12.86947,5.215968 19.44021,9.871002 18.77907,13.304015 -0.3727,1.935266 -2.024,2.590131 -10.9467,4.341186 -3.08875,0.606158 -6.38207,1.662338 -7.31849,2.347066 -1.48286,1.084294 -0.80608,1.595121 5.24424,3.958291 3.82075,1.492333 7.2073,2.713333 7.52566,2.713333 0.31836,0 3.3818,-5.029658 6.80764,-11.177018 3.42585,-6.147359 7.54174,-12.672359 9.14643,-14.5 2.56598,-2.922498 3.51348,-3.322982 7.86177,-3.322982 6.7008,0 9.84866,3.195216 9.84866,9.996827 0,3.893392 -5.07096,35.899226 -7.56595,47.753173 -0.76138,3.617413 -0.6806,3.674433 3.14489,2.219986 3.23786,-1.231031 8.93043,0.309065 9.83263,2.660177 0.32364,0.84338 0.58843,4.24323 0.58843,7.55522 l 0,6.0218 3.5348,-3.10359 c 3.8014,-3.33768 5.93221,-3.75919 9.88922,-1.95626 3.56099,1.6225 4.68308,5.99564 3.74686,14.60267 -0.85837,7.89133 -0.89403,7.84655 4.87251,6.11885 2.07648,-0.62213 4.9084,-0.84678 6.29316,-0.49923 2.82299,0.70853 5.67142,5.516 5.6489,9.53402 -0.0481,8.57858 -10.12806,26.18995 -23.62035,41.26864 -18.07202,20.19689 -38.96068,33.23262 -63.29133,39.49745 -7.85001,2.02128 -12.72465,2.5443 -27.07377,2.90488 -15.71692,0.39495 -18.6208,0.19636 -28.5,-1.94904 z M 92.461012,171.25307 c 9.014278,-4.48521 15.861778,-8.33088 15.216648,-8.54592 -0.64513,-0.21505 -3.2324,0.57706 -5.7495,1.76024 -5.010179,2.35506 -7.320102,1.79723 -3.402316,-0.82164 1.349943,-0.90238 5.174936,-3.92536 8.499996,-6.71774 3.32506,-2.79238 7.42834,-5.62646 9.11841,-6.29794 1.69006,-0.67149 4.40492,-2.95408 6.03301,-5.07242 1.6281,-2.11834 5.42032,-5.77452 8.42716,-8.12486 3.00684,-2.35033 6.54084,-5.32057 7.85334,-6.60053 3.2076,-3.12807 4.09434,-2.93402 4.21699,0.9228 l 0.10335,3.25 0.80571,-3.5 c 0.44314,-1.925 1.28424,-6.94624 1.8691,-11.15831 1.36015,-9.79541 3.34711,-14.11546 9.41599,-20.472208 2.78811,-2.920361 4.45427,-5.404866 3.86771,-5.767377 -0.56675,-0.350273 -6.65383,-0.921868 -13.52685,-1.270209 -9.21044,-0.466808 -13.32119,-0.291702 -15.63311,0.665926 -2.70923,1.122199 -3.35935,1.076648 -4.77022,-0.334225 -1.46841,-1.468413 -1.50592,-2.670913 -0.37106,-11.89855 0.69434,-5.645777 1.45939,-11.39005 1.7001,-12.76505 0.24072,-1.375 -2.52036,3.549408 -6.13572,10.943128 -7.46512,15.266794 -7.47526,13.697848 0.16272,25.191355 l 4.40893,6.63449 0,11.45658 c 0,12.62241 -1.51783,19.56785 -5.11248,23.39418 -5.28035,5.62067 -11.49384,0.97724 -13.93713,-10.41544 -1.46717,-6.84117 0.09,-14.2283 4.56603,-21.66154 l 3.42115,-5.68139 -2.48133,-3.93068 c -1.36473,-2.16187 -2.64722,-3.93068 -2.84998,-3.93068 -0.71988,0 -78.111348,100.11239 -78.406603,101.42556 -0.165191,0.7347 10.184809,-4.03233 23,-10.59339 12.815191,-6.56107 30.675671,-15.59894 39.689956,-20.08416 z m 73.462048,-60.51126 c -0.6006,-2.2967 9.58744,-11.230623 12.83159,-11.252066 1.27421,-0.0084 2.9314,-0.404711 3.68264,-0.880642 0.92337,-0.584976 -0.53456,-1.202255 -4.5,-1.905275 -5.47968,-0.971477 -6.10401,-0.877708 -9.4825,1.424204 -1.98914,1.355282 -4.63016,3.543029 -5.86894,4.861649 l -2.25234,2.3975 2.11895,2.6938 c 1.16542,1.48159 2.11894,3.33467 2.11894,4.11796 0,0.78328 0.40775,1.17215 0.90612,0.86414 0.49837,-0.30801 0.69886,-1.35258 0.44554,-2.32127 z m 28.66689,-21.736753 c 0.47275,3.622979 0.69303,3.104576 2.33708,-5.5 0.99833,-5.225 2.02838,-10.175 2.289,-11 1.02472,-3.243737 -1.65784,0.857948 -7.05396,10.785618 -6.43541,11.839759 -7.28801,15.172206 -1.84237,7.201034 l 3.7483,-5.486652 0.52195,4 z"
         id="path3082"
         inkscape:connector-curvature="0" />
      <path
         style="fill:#b8c6dd"
         d="m 15.755649,222.48801 c -5.5611,-1.16113 -10.2382867,-4.08704 -12.3970566,-7.75522 -4.3198216,-7.34023 -3.01830088,-18.62363 2.8445366,-24.6604 3.3169234,-3.41532 3.7607246,-3.56733 10.415276,-3.56733 l 6.950727,0 8.12926,-10.25 c 4.471093,-5.6375 9.258658,-11.94091 10.639033,-14.00757 l 2.509772,-3.75757 -5.03626,-5.32511 C 29.727026,142.50257 26.304349,130.69843 28.544199,114.30805 30.268589,101.68962 31.907877,96.563683 37.728779,85.588549 44.674128,72.493302 49.250143,66.033775 58.516472,56.244539 82.690965,30.705855 121.34684,17.366273 159.5714,21.371948 c 22.82902,2.392327 25.81203,5.799963 12.45937,14.232933 -6.99275,4.416318 -8.01396,6.487777 -3.70937,7.524181 1.5125,0.364161 5,1.780445 7.75,3.1473 12.61172,6.268505 13.7712,9.279387 4.25,11.036246 -7.75423,1.430817 -14.75,4.116015 -14.75,5.661517 0,0.641128 2.5875,1.965457 5.75,2.942952 3.1625,0.977496 6.73892,2.404601 7.9476,3.171344 1.20869,0.766744 2.78369,1.159641 3.5,0.873107 0.71632,-0.286535 4.0024,-5.48689 7.3024,-11.556345 3.3,-6.069454 7.27026,-12.579941 8.8228,-14.467749 2.4939,-3.032448 3.3766,-3.432377 7.57569,-3.432377 3.75304,0 5.23787,0.516246 7.05834,2.454049 2.12017,2.256811 2.2608,3.080629 1.74975,10.25 -0.30565,4.287773 -1.9911,15.670951 -3.74545,25.295951 -4.87592,26.750993 -4.85264,25.745243 -0.52,22.468193 2.50841,-1.897261 5.54734,-1.864996 8.33636,0.0885 1.93381,1.3545 2.22251,2.45862 2.22251,8.5 0,3.81882 0.36581,6.9433 0.81291,6.9433 0.4471,0 2.10629,-1.35 3.68709,-3 3.82351,-3.99088 8.48271,-4.10873 11.48611,-0.29053 1.95458,2.48485 2.07326,3.45093 1.43158,11.6535 l -0.69967,8.94403 2.39099,-0.67757 c 9.12744,-2.5866 12.15767,-1.97705 14.47782,2.9123 1.52831,3.22069 1.541,3.9886 0.14681,8.88951 -3.2608,11.46251 -16.32697,30.16131 -30.82968,44.1199 -16.13056,15.52538 -33.86763,25.81265 -53.40396,30.97359 -13.55266,3.58022 -39.3565,4.58034 -53,2.05421 -19.431316,-3.59777 -32.769629,-9.40296 -42.920199,-18.68 l -5.559533,-5.0811 -15.760132,8.19855 c -9.46903,4.92587 -17.42895,9.8083 -19.940764,12.23121 -3.529097,3.40418 -4.931708,4.0797 -9,4.33456 -2.650653,0.16605 -6.761459,-0.1036 -9.135124,-0.59921 z m 71.548788,-47.0131 57.233033,-28.46985 0.0482,-5.5 c 0.09,-10.28039 2.77839,-28.39059 4.92694,-33.19028 1.23655,-2.76234 4.22765,-6.55186 7.27674,-9.219131 2.84744,-2.490869 4.84778,-4.858237 4.4452,-5.260818 -1.97206,-1.972056 -27.56441,-3.078196 -32.02055,-1.383976 -4.74766,1.805059 -5.23023,-0.475665 -3.21939,-15.215614 0.98461,-7.217451 2.01534,-13.709336 2.2905,-14.426411 0.27513,-0.717075 0.0987,-1.303773 -0.39214,-1.303773 -0.88012,0 -15.32157,30.145292 -15.32157,31.982469 0,1.244245 8.85134,15.807624 10.06252,16.556174 1.60298,0.9907 1.12949,23.6657 -0.59632,28.55716 -1.78602,5.06213 -5.06087,8.9042 -7.58962,8.9042 -2.61049,0 -6.6053,-5.82728 -7.87314,-11.48464 -1.72269,-7.68699 0.21835,-15.85815 5.62798,-23.69199 l 2.53889,-3.67662 -2.68018,-4.57338 c -1.47409,-2.51535 -3.19991,-4.557578 -3.83515,-4.538272 -0.63524,0.0193 -4.30498,4.150782 -8.15498,9.181062 -3.849996,5.03027 -21.512497,27.83024 -39.249996,50.66658 -17.7375,22.83634 -32.250001,42.36737 -32.250001,43.40228 0,1.0349 0.3375,1.71808 0.75,1.51816 0.4125,-0.19991 26.504865,-13.17491 57.983034,-28.83333 z m 12.130935,-11.71995 c 1.300178,-0.90485 5.274918,-4.03125 8.832748,-6.94754 3.55784,-2.9163 7.06485,-5.30236 7.79337,-5.30236 0.72851,0 3.32719,-2.2274 5.77484,-4.94977 2.44765,-2.72238 6.65185,-6.61878 9.34267,-8.65868 2.69082,-2.03989 5.95711,-4.84201 7.25842,-6.22693 l 2.36602,-2.51804 1.30703,3.10851 c 0.71887,1.70969 1.22916,5.50171 1.13398,8.42671 l -0.17305,5.3182 -6,3.00934 c -10.58063,5.30679 -23.88224,11.22741 -28,12.46295 -2.2,0.66011 -5.41801,1.83639 -7.15113,2.61395 -4.181788,1.87617 -5.422691,1.70821 -2.484898,-0.33634 z m -27.458332,-40.7499 22.498912,-29.000003 -0.581589,-7.0439 c -0.530901,-6.430004 -0.374224,-7.28191 1.797726,-9.774855 1.568323,-1.800108 3.845879,-2.978122 6.681971,-3.456101 l 4.30266,-0.725144 8.45519,-18 c 10.1297,-21.564853 12.17746,-23.971811 19.77346,-23.241931 3.88114,0.372928 5.58216,1.105682 7.35719,3.16927 3.01132,3.500869 2.96694,6.380908 -0.40464,26.259872 -1.50998,8.902966 -2.52592,16.406722 -2.25763,16.675013 0.26829,0.26829 5.88405,0.634045 12.47946,0.812788 11.39212,0.30874 12.33087,0.179254 18.77672,-2.589937 3.7318,-1.60321 6.41549,-3.284518 5.96376,-3.736242 -1.52781,-1.527809 -16.5334,-4.848833 -21.90879,-4.848833 -2.93702,0 -5.34004,-0.419358 -5.34004,-0.931906 0,-2.262084 16.6081,-11.016945 23.80297,-12.547593 4.61153,-0.981065 3.55088,-2.63783 -3.37838,-5.277127 -4.84041,-1.84367 -7.25132,-2.166249 -13.17459,-1.762754 -5.97573,0.407069 -7.25,0.232109 -7.25,-0.995441 0,-1.542481 9.2444,-8.808478 16.13179,-12.679405 6.22726,-3.499914 4.86446,-5.14477 -5.14231,-6.20662 -10.78515,-1.144448 -28.04424,0.467132 -41.51513,3.876506 C 107.73561,33.843223 88.238372,42.965976 79.571404,49.450753 61.42215,63.030339 47.203825,82.90146 39.463036,105.50506 c -3.241979,9.46678 -3.244554,27.1555 -0.0051,35 2.763713,6.69247 6.817749,12.21899 8.659966,11.80539 0.748126,-0.16797 11.484738,-13.35539 23.859138,-29.30539 z m 92.0381,14.88322 c 1.24406,-0.4774 1.34787,-0.92939 0.45934,-2 -1.59307,-1.91953 -2.5794,-1.72899 -3.19283,0.61678 -0.54835,2.09689 0.0649,2.40723 2.73349,1.38322 z m 11.08272,-6.19009 c -0.30789,-0.30789 -1.11479,-6.4e-4 -1.79313,0.68278 -0.98026,0.98762 -0.8654,1.10248 0.5598,0.5598 0.98622,-0.37553 1.54122,-0.93469 1.23333,-1.24258 z m -10.86418,-5.44313 c -0.27741,-0.6875 -0.50439,-0.125 -0.50439,1.25 0,1.375 0.22698,1.9375 0.50439,1.25 0.27741,-0.6875 0.27741,-1.8125 0,-2.5 z m 2.23804,-14.84346 c 0.11875,-3.08957 8.23906,-10.42351 12.717,-11.48549 3.97726,-0.943241 8.77306,-4.6986 11.3733,-8.905874 3.37861,-5.46671 4.36667,-3.514195 3.73517,7.381113 -0.30616,5.282041 -0.38363,9.153711 -0.17217,8.603711 0.94541,-2.45895 6.52661,-36.835352 6.2231,-38.33003 -0.30272,-1.490775 -7.01556,9.519547 -13.8465,22.710881 l -2.26856,4.380855 -6.68443,-0.560398 c -6.64784,-0.557332 -6.7112,-0.538428 -11.58082,3.455319 -2.69303,2.208643 -5.31934,4.422373 -5.83626,4.919393 -0.58138,0.559 -0.14608,2.33784 1.14128,4.66383 1.14463,2.06808 2.43134,5.33515 2.85937,7.26015 0.74858,3.36667 0.80607,3.40476 1.50903,1 0.40195,-1.375 0.77567,-3.66706 0.83049,-5.09346 z"
         id="path3080"
         inkscape:connector-curvature="0" />
      <path
         style="fill:#a6a3a1"
         d="m 15.755649,222.48801 c -5.5611,-1.16113 -10.2382867,-4.08704 -12.3970566,-7.75522 -4.3198216,-7.34023 -3.01830088,-18.62363 2.8445366,-24.6604 3.3169234,-3.41532 3.7607246,-3.56733 10.415276,-3.56733 l 6.950727,0 8.12926,-10.25 c 4.471093,-5.6375 9.258658,-11.94091 10.639033,-14.00757 l 2.509772,-3.75757 -5.03626,-5.32511 C 29.727026,142.50257 26.304349,130.69843 28.544199,114.30805 30.268589,101.68962 31.907877,96.563683 37.728779,85.588549 44.674128,72.493302 49.250143,66.033775 58.516472,56.244539 82.690965,30.705855 121.34684,17.366273 159.5714,21.371948 c 22.82902,2.392327 25.81203,5.799963 12.45937,14.232933 -6.99275,4.416318 -8.01396,6.487777 -3.70937,7.524181 1.5125,0.364161 5,1.780445 7.75,3.1473 12.61172,6.268505 13.7712,9.279387 4.25,11.036246 -7.75423,1.430817 -14.75,4.116015 -14.75,5.661517 0,0.641128 2.5875,1.965457 5.75,2.942952 3.1625,0.977496 6.73892,2.404601 7.9476,3.171344 1.20869,0.766744 2.78369,1.159641 3.5,0.873107 0.71632,-0.286535 4.0024,-5.48689 7.3024,-11.556345 3.3,-6.069454 7.27026,-12.579941 8.8228,-14.467749 2.4939,-3.032448 3.3766,-3.432377 7.57569,-3.432377 3.75304,0 5.23787,0.516246 7.05834,2.454049 2.12017,2.256811 2.2608,3.080629 1.74975,10.25 -0.30565,4.287773 -1.9911,15.670951 -3.74545,25.295951 -4.87592,26.750993 -4.85264,25.745243 -0.52,22.468193 2.50841,-1.897261 5.54734,-1.864996 8.33636,0.0885 1.93381,1.3545 2.22251,2.45862 2.22251,8.5 0,3.81882 0.36581,6.9433 0.81291,6.9433 0.4471,0 2.10629,-1.35 3.68709,-3 3.82351,-3.99088 8.48271,-4.10873 11.48611,-0.29053 1.95458,2.48485 2.07326,3.45093 1.43158,11.6535 l -0.69967,8.94403 2.39099,-0.67757 c 9.12744,-2.5866 12.15767,-1.97705 14.47782,2.9123 1.52831,3.22069 1.541,3.9886 0.14681,8.88951 -3.2608,11.46251 -16.32697,30.16131 -30.82968,44.1199 -16.13056,15.52538 -33.86763,25.81265 -53.40396,30.97359 -13.55266,3.58022 -39.3565,4.58034 -53,2.05421 -19.431316,-3.59777 -32.769629,-9.40296 -42.920199,-18.68 l -5.559533,-5.0811 -15.760132,8.19855 c -9.46903,4.92587 -17.42895,9.8083 -19.940764,12.23121 -3.529097,3.40418 -4.931708,4.0797 -9,4.33456 -2.650653,0.16605 -6.761459,-0.1036 -9.135124,-0.59921 z m 71.548788,-47.0131 57.233033,-28.46985 0.0482,-5.5 c 0.09,-10.28039 2.77839,-28.39059 4.92694,-33.19028 1.23655,-2.76234 4.22765,-6.55186 7.27674,-9.219131 2.84744,-2.490869 4.84778,-4.858237 4.4452,-5.260818 -1.97206,-1.972056 -27.56441,-3.078196 -32.02055,-1.383976 -4.74766,1.805059 -5.23023,-0.475665 -3.21939,-15.215614 0.98461,-7.217451 2.01534,-13.709336 2.2905,-14.426411 0.27513,-0.717075 0.0987,-1.303773 -0.39214,-1.303773 -0.88012,0 -15.32157,30.145292 -15.32157,31.982469 0,1.244245 8.85134,15.807624 10.06252,16.556174 1.60298,0.9907 1.12949,23.6657 -0.59632,28.55716 -1.78602,5.06213 -5.06087,8.9042 -7.58962,8.9042 -2.61049,0 -6.6053,-5.82728 -7.87314,-11.48464 -1.72269,-7.68699 0.21835,-15.85815 5.62798,-23.69199 l 2.53889,-3.67662 -2.68018,-4.57338 c -1.47409,-2.51535 -3.19991,-4.557578 -3.83515,-4.538272 -0.63524,0.0193 -4.30498,4.150782 -8.15498,9.181062 -3.849996,5.03027 -21.512497,27.83024 -39.249996,50.66658 -17.7375,22.83634 -32.250001,42.36737 -32.250001,43.40228 0,1.0349 0.3375,1.71808 0.75,1.51816 0.4125,-0.19991 26.504865,-13.17491 57.983034,-28.83333 z M 71.97704,123.00506 94.475952,94.005057 l -0.581589,-7.0439 c -0.530901,-6.430004 -0.374224,-7.28191 1.797726,-9.774855 1.568323,-1.800108 3.845879,-2.978122 6.681971,-3.456101 l 4.30266,-0.725144 8.45519,-18 c 10.1297,-21.564853 12.17746,-23.971811 19.77346,-23.241931 3.88114,0.372928 5.58216,1.105682 7.35719,3.16927 3.01132,3.500869 2.96694,6.380908 -0.40464,26.259872 -1.50998,8.902966 -2.52592,16.406722 -2.25763,16.675013 0.26829,0.26829 5.88405,0.634045 12.47946,0.812788 11.39212,0.30874 12.33087,0.179254 18.77672,-2.589937 3.7318,-1.60321 6.41549,-3.284518 5.96376,-3.736242 -1.52781,-1.527809 -16.5334,-4.848833 -21.90879,-4.848833 -2.93702,0 -5.34004,-0.419358 -5.34004,-0.931906 0,-2.262084 16.6081,-11.016945 23.80297,-12.547593 4.61153,-0.981065 3.55088,-2.63783 -3.37838,-5.277127 -4.84041,-1.84367 -7.25132,-2.166249 -13.17459,-1.762754 -5.97573,0.407069 -7.25,0.232109 -7.25,-0.995441 0,-1.542481 9.2444,-8.808478 16.13179,-12.679405 6.22726,-3.499914 4.86446,-5.14477 -5.14231,-6.20662 -10.78515,-1.144448 -28.04424,0.467132 -41.51513,3.876506 C 107.73561,33.843223 88.238372,42.965976 79.571404,49.450753 61.42215,63.030339 47.203825,82.90146 39.463036,105.50506 c -3.241979,9.46678 -3.244554,27.1555 -0.0051,35 2.763713,6.69247 6.817749,12.21899 8.659966,11.80539 0.748126,-0.16797 11.484738,-13.35539 23.859138,-29.30539 z m 104.94877,8.56924 c 11.58548,-5.51003 14.68051,-7.40617 15.09852,-9.25 1.51427,-6.6794 8.63033,-53.069461 8.29498,-54.07551 -0.21574,-0.647231 -3.00049,3.533152 -6.18833,9.289741 -3.18784,5.75659 -6.91443,12.214749 -8.28132,14.351467 l -2.48524,3.884941 -6.22927,-0.581699 c -6.13927,-0.573294 -6.30032,-0.523429 -11.14651,3.451233 -2.70448,2.218117 -5.34017,4.439587 -5.85709,4.936607 -0.58068,0.55834 -0.0136,2.53169 1.48401,5.16383 2.04936,3.60194 2.4053,5.49618 2.30372,12.26015 -0.0661,4.4 -0.80234,10.1375 -1.63614,12.75 -0.8338,2.6125 -1.15917,4.75 -0.72303,4.75 0.43613,0 7.3507,-3.11884 15.3657,-6.93076 z"
         id="path3078"
         inkscape:connector-curvature="0" />
      <path
         style="fill:#dc4458"
         d="m 135.0714,222.85746 c -26.00062,-1.31461 -45.809675,-7.85396 -58.762501,-19.39863 -3.056906,-2.72457 -6.054018,-4.95377 -6.660248,-4.95377 -3.030558,0 -31.459657,15.39893 -36.197387,19.6067 l -5.24091,4.65467 -7.243774,-0.54784 c -8.77101,-0.66335 -13.3849524,-2.70248 -17.0921037,-7.55384 -3.97426434,-5.20091 -3.98174815,-13.63964 -0.018084,-20.3913 3.4921109,-5.94842 5.0624388,-6.76839 12.9621777,-6.76839 5.682256,0 6.653187,-0.30023 8.893275,-2.75 3.408699,-3.72776 15.957613,-19.90918 18.944207,-24.42794 1.328444,-2.00995 13.416864,-17.75467 26.863157,-34.98826 13.446292,-17.23359 24.402681,-32.008803 24.347528,-32.833803 -0.05515,-0.825 -0.424077,-3.163071 -0.819836,-5.195714 -1.448153,-7.437794 1.349605,-11.804286 7.563399,-11.804286 l 3.89605,0 10.28252,-20.75 10.28253,-20.75 6.14209,-0.294916 c 5.64003,-0.27081 6.31439,-0.07587 8.25,2.384858 2.72639,3.466047 2.65629,5.646213 -0.81663,25.39826 -1.59448,9.068511 -2.72509,16.769685 -2.51247,17.11372 0.21263,0.344035 6.36044,0.939435 13.6618,1.323111 l 13.27521,0.697593 9.43653,-4.811313 9.43654,-4.811313 7.06346,-12.66425 c 9.01657,-16.166002 9.6357,-16.83575 15.56347,-16.83575 9.37471,0 9.88314,4.067358 4.38767,35.100804 -4.73532,26.740789 -4.75704,26.899199 -3.68821,26.899199 0.50506,0 1.79179,-0.66069 2.85941,-1.4682 1.06762,-0.80751 3.39326,-1.48251 5.16808,-1.5 4.85879,-0.0479 6.72242,3.39473 5.93193,10.95779 -0.34017,3.25454 -0.24888,6.14577 0.20286,6.42496 0.45175,0.2792 2.33093,-1.04986 4.17597,-2.95346 3.93648,-4.06141 8.56732,-4.65999 11.44566,-1.47947 1.57847,1.7442 1.70849,3.13765 1.08511,11.62994 l -0.70823,9.64831 2.81988,-0.72545 c 1.55093,-0.399 4.89862,-0.94694 7.43932,-1.21765 4.27337,-0.45531 4.78483,-0.25994 6.82678,2.60772 2.6605,3.73632 2.23753,6.72263 -2.20602,15.57551 -8.91537,17.76208 -29.71981,41.53629 -45.24021,51.6981 -22.6768,14.8474 -46.28089,21.45467 -72,20.1543 z m -47.249996,-46.70355 57.749996,-28.76512 0.0258,-5.69187 c 0.05,-11.02179 1.96897,-25.75558 4.10239,-31.49725 1.69653,-4.56589 3.4134,-6.8981 8.04121,-10.923246 3.23626,-2.814817 5.52091,-5.481059 5.07698,-5.924982 -2.11438,-2.114383 -26.11291,-3.297802 -34.74638,-1.713418 -3.3226,0.609753 -3.21209,-2.371812 1.13545,-30.632967 0.55226,-3.58997 0.45741,-3.846239 -0.92523,-2.5 -0.84732,0.825 -5.03,9.072662 -9.29485,18.328137 l -7.75427,16.828137 1.83961,3.171863 c 1.01178,1.744525 3.53472,5.748566 5.60653,8.897856 3.07906,4.68038 3.8907,6.98207 4.44472,12.60457 1.25211,12.70691 -2.79038,27.01393 -7.91153,28.00017 -3.9811,0.76669 -8.64043,-7.86028 -8.64043,-15.99814 0,-4.63731 2.9666,-12.7339 6.5719,-17.93635 l 2.66713,-3.84866 -3.25417,-5.07118 c -1.7898,-2.78915 -3.84624,-4.93736 -4.56987,-4.773795 -1.25392,0.283427 -79.142722,99.941255 -80.147187,102.547395 -0.607135,1.57525 0.481844,4.5425 1.482726,4.04014 0.412211,-0.20689 26.736974,-13.32048 58.499475,-29.14129 z m 89.138006,-43.59559 c 10.5498,-5.01746 14.86944,-7.58641 15.55372,-9.25 0.97731,-2.37602 9.05827,-53.060333 9.05827,-56.814087 0,-3.596635 -1.58487,-1.435415 -9.51762,12.978809 -4.22186,7.671351 -8.19502,14.368604 -8.82925,14.882783 -0.66743,0.541103 -3.25913,0.606412 -6.15313,0.155055 -5.75559,-0.897659 -7.6223,-0.140494 -14.4864,5.87589 l -4.4864,3.93233 2.27901,4.05495 c 1.25346,2.23022 2.52439,6.20956 2.82429,8.84298 0.48821,4.28689 -1.28076,15.81591 -3.15127,20.53803 -1.16731,2.94687 1.52698,2.11881 16.90878,-5.19674 z"
         id="path3076"
         inkscape:connector-curvature="0" />
      <path
         style="fill:#5f5e5e"
         d="m 135.0714,222.85746 c -26.00062,-1.31461 -45.809675,-7.85396 -58.762501,-19.39863 -3.056906,-2.72457 -6.054018,-4.95377 -6.660248,-4.95377 -3.030558,0 -31.459657,15.39893 -36.197387,19.6067 l -5.24091,4.65467 -7.243774,-0.54784 c -8.77101,-0.66335 -13.3849524,-2.70248 -17.0921037,-7.55384 -3.97426434,-5.20091 -3.98174815,-13.63964 -0.018084,-20.3913 3.4921109,-5.94842 5.0624388,-6.76839 12.9621777,-6.76839 5.682256,0 6.653187,-0.30023 8.893275,-2.75 3.408699,-3.72776 15.957613,-19.90918 18.944207,-24.42794 1.328444,-2.00995 13.416864,-17.75467 26.863157,-34.98826 13.446292,-17.23359 24.402681,-32.008803 24.347528,-32.833803 -0.05515,-0.825 -0.424077,-3.163071 -0.819836,-5.195714 -1.448153,-7.437794 1.349605,-11.804286 7.563399,-11.804286 l 3.89605,0 10.28252,-20.75 10.28253,-20.75 6.14209,-0.294916 c 5.64003,-0.27081 6.31439,-0.07587 8.25,2.384858 2.72639,3.466047 2.65629,5.646213 -0.81663,25.39826 -1.59448,9.068511 -2.72509,16.769685 -2.51247,17.11372 0.21263,0.344035 6.36044,0.939435 13.6618,1.323111 l 13.27521,0.697593 9.43653,-4.811313 9.43654,-4.811313 7.06346,-12.66425 c 9.01657,-16.166002 9.6357,-16.83575 15.56347,-16.83575 9.37471,0 9.88314,4.067358 4.38767,35.100804 -4.73532,26.740789 -4.75704,26.899199 -3.68821,26.899199 0.50506,0 1.79179,-0.66069 2.85941,-1.4682 1.06762,-0.80751 3.39326,-1.48251 5.16808,-1.5 4.85879,-0.0479 6.72242,3.39473 5.93193,10.95779 -0.34017,3.25454 -0.24888,6.14577 0.20286,6.42496 0.45175,0.2792 2.33093,-1.04986 4.17597,-2.95346 3.93648,-4.06141 8.56732,-4.65999 11.44566,-1.47947 1.57847,1.7442 1.70849,3.13765 1.08511,11.62994 l -0.70823,9.64831 2.81988,-0.72545 c 1.55093,-0.399 4.89862,-0.94694 7.43932,-1.21765 4.27337,-0.45531 4.78483,-0.25994 6.82678,2.60772 2.6605,3.73632 2.23753,6.72263 -2.20602,15.57551 -8.91537,17.76208 -29.71981,41.53629 -45.24021,51.6981 -22.6768,14.8474 -46.28089,21.45467 -72,20.1543 z m 28.5,-16.28192 c 22.59561,-5.01419 42.00412,-16.11768 59.14742,-33.83787 8.38863,-8.67093 19.85258,-23.86742 19.85258,-26.31639 0,-1.36511 -0.65457,-1.21874 -11.51027,2.5737 -15.39202,5.3772 -18.24157,4.42971 -11.00579,-3.65947 4.7752,-5.3384 10.55054,-18.83045 8.06047,-18.83045 -0.25058,0 -2.9867,1.77305 -6.08028,3.9401 -6.94056,4.86188 -20.32629,10.59774 -21.64781,9.27622 -0.5895,-0.5895 0.0522,-2.39702 1.71448,-4.82922 4.94998,-7.24273 11.1789,-21.01073 10.02688,-22.16276 -0.25503,-0.25502 -2.66875,1.15499 -5.36383,3.13336 -4.01265,2.94556 -5.06257,4.37087 -5.79699,7.86967 l -0.89686,4.27263 -13,6.51974 c -7.15,3.58586 -28.51494,14.13049 -47.47765,23.43251 -18.9627,9.30202 -38.7627,19.44081 -43.999994,22.53065 -5.237293,3.08984 -10.309852,5.91859 -11.272352,6.28611 -2.618094,0.99969 -2.161015,2.22333 2.236577,5.98751 7.178112,6.14419 20.818799,11.80773 34.354989,14.26401 11.14201,2.02183 32.53647,1.79612 42.65843,-0.45005 z m -75.749996,-30.42163 57.749996,-28.76512 0.0258,-5.69187 c 0.05,-11.02179 1.96897,-25.75558 4.10239,-31.49725 1.69653,-4.56589 3.4134,-6.8981 8.04121,-10.923246 3.23626,-2.814817 5.52091,-5.481059 5.07698,-5.924982 -2.11438,-2.114383 -26.11291,-3.297802 -34.74638,-1.713418 -3.3226,0.609753 -3.21209,-2.371812 1.13545,-30.632967 0.55226,-3.58997 0.45741,-3.846239 -0.92523,-2.5 -0.84732,0.825 -5.03,9.072662 -9.29485,18.328137 l -7.75427,16.828137 1.83961,3.171863 c 1.01178,1.744525 3.53472,5.748566 5.60653,8.897856 3.07906,4.68038 3.8907,6.98207 4.44472,12.60457 1.25211,12.70691 -2.79038,27.01393 -7.91153,28.00017 -3.9811,0.76669 -8.64043,-7.86028 -8.64043,-15.99814 0,-4.63731 2.9666,-12.7339 6.5719,-17.93635 l 2.66713,-3.84866 -3.25417,-5.07118 c -1.7898,-2.78915 -3.84624,-4.93736 -4.56987,-4.773795 -1.25392,0.283427 -79.142722,99.941255 -80.147187,102.547395 -0.607135,1.57525 0.481844,4.5425 1.482726,4.04014 0.412211,-0.20689 26.736974,-13.32048 58.499475,-29.14129 z m 89.138006,-43.59559 c 10.5498,-5.01746 14.86944,-7.58641 15.55372,-9.25 0.97731,-2.37602 9.05827,-53.060333 9.05827,-56.814087 0,-3.596635 -1.58487,-1.435415 -9.51762,12.978809 -4.22186,7.671351 -8.19502,14.368604 -8.82925,14.882783 -0.66743,0.541103 -3.25913,0.606412 -6.15313,0.155055 -5.75559,-0.897659 -7.6223,-0.140494 -14.4864,5.87589 l -4.4864,3.93233 2.27901,4.05495 c 1.25346,2.23022 2.52439,6.20956 2.82429,8.84298 0.48821,4.28689 -1.28076,15.81591 -3.15127,20.53803 -1.16731,2.94687 1.52698,2.11881 16.90878,-5.19674 z"
         id="path3074"
         inkscape:connector-curvature="0" />
      <path
         style="fill:#5e272e"
         d="m 125.5714,221.3631 c -19.68222,-2.02889 -38.498093,-9.21721 -49.160254,-18.78092 -3.113141,-2.79242 -6.195274,-5.07712 -6.849186,-5.07712 -2.933633,0 -32.936097,16.3348 -36.771485,20.02019 -3.722829,3.57723 -4.657271,3.97981 -9.237615,3.97981 -8.56782,0 -13.294774,-1.72462 -18.0739449,-6.59424 -4.0104463,-4.08635 -4.3347078,-4.81195 -4.3177703,-9.66195 0.01368,-3.91727 0.6779926,-6.27855 2.6260192,-9.33411 4.4689497,-7.00975 5.1774657,-7.4097 13.126471,-7.4097 l 7.199374,0 9.479198,-12.19386 c 5.213558,-6.70662 10.829197,-14.1021 12.479197,-16.43441 1.649999,-2.3323 13.783929,-18.08219 26.964286,-34.99975 C 86.216047,107.95949 96.930902,93.417466 96.846478,92.56145 96.762058,91.705434 96.383096,88.876372 96.004348,86.274645 95.042015,79.664112 97.0458,76.7296 102.8063,76.313293 l 4.2651,-0.308236 9.5,-19.170264 c 5.225,-10.543645 10.1176,-19.881145 10.87244,-20.75 0.92939,-1.06976 3.09015,-1.579736 6.6933,-1.579736 4.3648,0 5.60056,0.399341 6.87756,2.222506 2.13399,3.046702 1.97991,5.741044 -1.43825,25.150162 -1.6343,9.279968 -2.7669,17.203655 -2.51688,17.608193 0.25002,0.404539 6.73235,1.054193 14.40519,1.443675 l 13.9506,0.708149 8.44017,-4.085274 c 4.64209,-2.246901 9.12181,-4.864255 9.95494,-5.816343 0.83312,-0.952087 4.7108,-7.405702 8.61706,-14.341365 3.90625,-6.935663 7.74648,-13.144939 8.53385,-13.798391 0.78736,-0.653451 3.01365,-1.444832 4.94732,-1.758623 2.88407,-0.468019 3.97816,-0.108139 6.08923,2.002936 1.64052,1.640517 2.57347,3.680064 2.57347,5.62593 0,2.974314 -2.95382,20.484286 -7.14853,42.375881 -2.3137,12.074817 -1.83421,14.191727 2.562,11.311217 3.14707,-2.06204 7.9424,-2.1297 9.59751,-0.13542 0.86217,1.03886 1.09865,3.71049 0.75435,8.5225 -0.28458,3.97738 -0.087,7.26549 0.45685,7.60158 0.52709,0.32577 2.62421,-1.03436 4.66025,-3.02251 2.63411,-2.57213 4.59186,-3.6148 6.78729,-3.6148 5.04941,0 5.71245,1.75585 4.96574,13.15016 l -0.6611,10.0879 2.76282,-0.66075 c 1.51955,-0.3634 4.96314,-0.93026 7.65243,-1.25967 4.34819,-0.53261 5.09315,-0.33422 6.72776,1.79172 2.86788,3.72986 2.27319,6.87063 -3.21709,16.99058 -7.63618,14.07541 -13.06776,21.25422 -25.30906,33.45048 -28.32919,28.22497 -59.85951,39.40327 -99.59122,35.30762 z m 38,-14.78756 c 22.59561,-5.01419 42.00412,-16.11768 59.14742,-33.83787 8.38863,-8.67093 19.85258,-23.86742 19.85258,-26.31639 0,-1.36511 -0.65457,-1.21874 -11.51027,2.5737 -15.39202,5.3772 -18.24157,4.42971 -11.00579,-3.65947 4.7752,-5.3384 10.55054,-18.83045 8.06047,-18.83045 -0.25058,0 -2.9867,1.77305 -6.08028,3.9401 -6.94056,4.86188 -20.32629,10.59774 -21.64781,9.27622 -0.5895,-0.5895 0.0522,-2.39702 1.71448,-4.82922 4.94998,-7.24273 11.1789,-21.01073 10.02688,-22.16276 -0.25503,-0.25502 -2.66875,1.15499 -5.36383,3.13336 -4.01265,2.94556 -5.06257,4.37087 -5.79699,7.86967 l -0.89686,4.27263 -29.5,14.65017 c -16.225,8.05759 -37.825,18.59095 -48,23.40747 -18.3053,8.66514 -38.411099,19.68049 -39.685456,21.74244 -1.700134,2.75087 13.015465,12.07344 25.527026,16.17178 14.62464,4.7905 39.91243,5.98186 55.15843,2.59862 z M 32.204568,205.04945 c 1.142997,-0.80059 22.055625,-11.37593 46.472506,-23.50077 24.416876,-12.12484 49.569326,-24.63231 55.894326,-27.79439 l 11.5,-5.74923 0.24989,-5 c 1.43275,-28.66759 3.32135,-35.23932 12.54777,-43.662146 4.1914,-3.826345 5.87812,-5.996637 5.20234,-6.693824 -1.22311,-1.26186 -26.41318,-3.589227 -30.82418,-2.847914 -1.7467,0.29355 -3.96332,0.845158 -4.92582,1.225793 -1.48383,0.586803 -1.74996,0.105421 -1.74976,-3.164923 1.3e-4,-2.121344 0.8908,-9.256989 1.97926,-15.856989 2.31846,-14.058172 2.49933,-17.826276 0.82892,-17.269472 -0.65537,0.218457 -5.17502,8.918457 -10.04365,19.333333 l -8.85207,18.936139 1.56845,3.335936 c 0.86265,1.834765 3.45304,6.109767 5.75642,9.500007 l 4.18797,6.16406 0.0372,11.5 c 0.0334,10.30912 -0.22166,12.01777 -2.46277,16.5 -1.97707,3.95413 -3.01121,5 -4.94395,5 -6.42868,0 -9.10691,-17.07943 -4.15066,-26.46932 1.29747,-2.45812 3.25312,-5.67863 4.34588,-7.15668 l 1.98686,-2.68736 -3.36907,-5.56496 c -1.85298,-3.06073 -4.09449,-5.577722 -4.98113,-5.593321 -0.93367,-0.01643 -8.711123,9.124101 -18.482378,21.721641 -9.278693,11.9625 -27.187245,35.025 -39.796785,51.25 -12.609539,16.225 -23.133064,30.2899 -23.385609,31.25533 -0.438168,1.67502 1.293642,4.74467 2.676813,4.74467 0.360277,0 1.590229,-0.65503 2.733227,-1.45561 z M 175.668,134.04858 c 8.47187,-4.10106 15.94704,-7.82846 16.6115,-8.28311 0.68984,-0.47203 3.1539,-13.03848 5.74395,-29.293532 2.49472,-15.656785 4.80848,-29.746024 5.14168,-31.309421 0.49927,-2.342565 0.29757,-2.782291 -1.14675,-2.5 -1.07052,0.209232 -5.11442,6.374732 -10.39099,15.84254 l -8.63841,15.5 -6.54604,-0.342241 -6.54603,-0.342242 -6.08763,5.066178 c -3.3482,2.786398 -6.32521,5.450588 -6.61558,5.920428 -0.29037,0.46983 0.68832,2.56874 2.17487,4.66423 2.46906,3.48046 2.69095,4.55484 2.56553,12.42182 -0.0815,5.11471 -0.79219,10.38874 -1.75,12.98756 -1.79434,4.86856 -2.0369,7.12427 -0.7661,7.12427 0.46563,0 7.77813,-3.35541 16.25,-7.45648 z"
         id="path3072"
         inkscape:connector-curvature="0" />
      <path
         style="fill:#090808"
         d="m 19.571403,221.00412 c -0.825,-0.20123 -3.273017,-0.65728 -5.440038,-1.01343 -2.864862,-0.47085 -5.1542727,-1.87922 -8.3896693,-5.16104 -4.1360827,-4.19544 -4.4551944,-4.89833 -4.5285754,-9.97491 -0.043419,-3.00378 0.4066426,-5.77378 1.0001372,-6.15555 0.5934946,-0.38177 1.8262352,-2.15239 2.7394236,-3.93471 2.5171976,-4.91296 5.5126869,-6.40417 12.3675339,-6.1568 3.261441,0.11769 6.430485,-0.0954 7.042321,-0.47353 0.611835,-0.37814 5.971627,-7.01808 11.910648,-14.75542 5.93902,-7.73734 22.15948,-28.69634 36.045464,-46.57554 l 25.247246,-32.507656 -0.641905,-6.90665 c -0.782027,-8.414311 0.73364,-10.883827 6.679951,-10.883827 2.04742,0 4.15622,-0.5625 4.68623,-1.25 0.53001,-0.6875 4.7172,-9.24076 9.30487,-19.007245 4.58766,-9.766485 9.17664,-18.653985 10.19774,-19.75 2.47657,-2.658293 9.77696,-2.757055 12.12363,-0.164014 2.29892,2.540275 2.1143,7.15142 -1.02821,25.681017 -1.49334,8.805367 -2.44186,16.721955 -2.10783,17.592416 0.49803,1.297844 3.13716,1.690855 14.66514,2.183888 l 14.05782,0.60123 6.6067,-3.443646 c 3.63368,-1.894005 7.17056,-3.443646 7.85972,-3.443646 2.1585,0 5.12853,-4.083796 12.52342,-17.219746 3.93832,-6.995861 7.84919,-13.408361 8.69083,-14.25 2.06027,-2.06027 8.80209,-1.972706 10.91658,0.141787 2.27511,2.275104 1.64059,10.740046 -2.53568,33.827959 -4.18113,23.114753 -4.32881,24.183803 -3.60241,26.076773 0.53713,1.39976 1.0051,1.34149 3.97687,-0.49517 7.33959,-4.536114 9.63204,-2.48491 9.63204,8.6184 0,5.26955 0.39379,8.3 1.07853,8.3 0.59319,0 2.9148,-1.8 5.15913,-4 5.30195,-5.19721 9.61166,-5.32524 11.16899,-0.33179 0.37191,1.19252 0.20876,5.89621 -0.36257,10.45265 -0.65679,5.238 -0.6891,8.63412 -0.0879,9.23537 0.60125,0.60125 2.54315,0.34287 5.28079,-0.70265 6.42082,-2.45213 9.27558,-2.14681 11.69489,1.25079 1.13745,1.5974 2.06809,3.55488 2.06809,4.34994 0,2.10541 -9.34145,18.96066 -15.3375,27.67421 -7.62122,11.07529 -22.4724,25.53388 -34.29705,33.39042 -11.82493,7.85673 -22.25381,12.60105 -35.99929,16.37684 -9.23988,2.53813 -11.16746,2.7101 -30.36616,2.70915 -19.09716,-9.5e-4 -21.18431,-0.18489 -30.5,-2.68787 -13.441465,-3.61151 -25.040005,-9.47091 -32.597312,-16.46764 l -6.117459,-5.66369 -16.563186,8.34377 c -9.75681,4.91503 -18.325493,9.96821 -20.851726,12.29681 -4.141283,3.8173 -8.944556,5.35228 -13.370313,4.27275 z M 160.52467,208.95444 c 8.90092,-1.68848 22.8744,-6.32395 30.13029,-9.99523 19.44416,-9.83822 41.49075,-30.73361 52.2996,-49.56872 3.92853,-6.84572 2.24812,-7.47374 -8.73969,-3.26632 -4.87109,1.86523 -10.72109,3.68666 -13,4.04762 l -4.14347,0.65631 3.86483,-4.29151 c 4.45996,-4.95232 8.24526,-12.66643 9.21607,-18.78153 0.84013,-5.2919 -0.0701,-5.39001 -6.24896,-0.67358 -5.32428,4.06412 -17.4685,10.42358 -19.90518,10.42358 -1.38411,0 -1.30266,-0.47864 0.55302,-3.25 2.80679,-4.19175 8.56763,-16.4444 9.41375,-20.02196 1.07332,-4.53818 -1.7246,-4.47338 -7.89161,0.18276 -3.53541,2.66926 -5.68139,5.09998 -6.05765,6.86142 -1.27475,5.96761 -2.13973,6.69484 -15.07763,12.67637 -40.10941,18.54366 -102.010076,50.54743 -104.002451,53.77116 -0.99942,1.6171 7.841813,9.35065 14.576589,12.75035 6.975852,3.5214 20.672242,7.80385 28.559222,8.9296 10.01845,1.42999 27.69201,1.21166 36.45327,-0.45032 z m -71.953266,-31.77047 58.499996,-29.17891 0.62446,-14.04018 c 0.95877,-21.55679 2.4257,-25.79216 12.00263,-34.654447 4.48654,-4.151746 5.96604,-6.112251 5.1947,-6.883585 -1.65995,-1.659951 -14.6474,-3.020147 -26.56101,-2.781776 -5.90658,0.11818 -10.98788,-0.03378 -11.29178,-0.337683 -0.30391,-0.303905 0.64379,-8.281205 2.106,-17.727332 1.46221,-9.446127 2.40041,-17.432919 2.08491,-17.748427 -0.31551,-0.315508 -1.17106,-0.344403 -1.90123,-0.06421 -1.53204,0.5879 -18.81112,37.366553 -18.77964,39.972616 0.0196,1.626644 3.50737,7.872774 8.74123,15.654574 4.36851,6.49518 2.55174,29.83934 -2.69155,34.58446 -1.71813,1.55488 -2.22073,1.61166 -3.66487,0.414 -4.87132,-4.03992 -5.90264,-17.04553 -2.01322,-25.38801 1.28211,-2.75 3.07771,-5.6176 3.99023,-6.37244 0.91253,-0.75485 1.65914,-2.335 1.65914,-3.51144 0,-2.76782 -6.034,-11.998987 -8.10374,-12.397583 -0.90437,-0.174167 -2.82582,1.331855 -4.44944,3.487463 -1.57173,2.0867 -19.113613,24.73038 -38.981965,50.31929 -19.868351,25.58891 -36.907887,47.72124 -37.865635,49.18294 -1.370332,2.09139 -1.505652,3.09808 -0.635104,4.72471 0.60844,1.13688 1.652923,2.03507 2.321072,1.99597 0.668148,-0.0391 27.539816,-13.2016 59.714816,-29.25 z m 88.124986,-43.01886 c 8.45625,-4.03697 15.87551,-7.97447 16.48723,-8.75 0.98933,-1.25425 10.4134,-57.674272 10.3951,-62.233377 -0.0191,-4.753004 -3.92808,-0.07518 -11.9692,14.323324 l -8.65628,15.5 -6.44092,-0.286348 -6.44092,-0.286347 -6.75,5.612083 c -3.7125,3.086645 -6.75,6.008025 -6.75,6.491945 0,0.48392 1.125,2.53763 2.5,4.56381 3.85375,5.67881 3.51167,15.74228 -1.02502,30.15486 -1.16968,3.71593 2.03821,2.84043 18.65001,-5.08995 z"
         id="path3070"
         inkscape:connector-curvature="0" />
    </g>
  </g>
</svg>
